<svg width="62" height="22" viewBox="0 0 62 22" fill="none" xmlns="http://www.w3.org/2000/svg">
<circle cx="10" cy="11" r="10" fill="#007BFF"/>
<circle cx="10" cy="11" r="4" fill="white"/>
<path d="M29.6846 5.33594H31.0542L34.5479 14.0298L38.0342 5.33594H39.4111L35.0752 16H34.0059L29.6846 5.33594ZM29.2378 5.33594H30.4463L30.644 11.8398V16H29.2378V5.33594ZM38.6421 5.33594H39.8506V16H38.4443V11.8398L38.6421 5.33594ZM46.6013 14.645V10.5654C46.6013 10.2529 46.5378 9.98193 46.4108 9.75244C46.2888 9.51807 46.1032 9.3374 45.8542 9.21045C45.6052 9.0835 45.2976 9.02002 44.9313 9.02002C44.5896 9.02002 44.2893 9.07861 44.0305 9.1958C43.7766 9.31299 43.5764 9.4668 43.4299 9.65723C43.2883 9.84766 43.2175 10.0527 43.2175 10.2725H41.8625C41.8625 9.98926 41.9357 9.7085 42.0822 9.43018C42.2287 9.15186 42.4387 8.90039 42.7121 8.67578C42.9904 8.44629 43.3225 8.26562 43.7082 8.13379C44.0988 7.99707 44.5334 7.92871 45.0119 7.92871C45.5881 7.92871 46.0959 8.02637 46.5354 8.22168C46.9797 8.41699 47.3264 8.7124 47.5754 9.10791C47.8293 9.49854 47.9563 9.98926 47.9563 10.5801V14.2715C47.9563 14.5352 47.9782 14.8159 48.0222 15.1138C48.071 15.4116 48.1418 15.668 48.2346 15.8828V16H46.821C46.7526 15.8438 46.6989 15.6362 46.6599 15.3774C46.6208 15.1138 46.6013 14.8696 46.6013 14.645ZM46.8356 11.1953L46.8503 12.1475H45.4807C45.0949 12.1475 44.7507 12.1792 44.4479 12.2427C44.1452 12.3013 43.8913 12.3916 43.6862 12.5137C43.4812 12.6357 43.3249 12.7896 43.2175 12.9751C43.1101 13.1558 43.0563 13.3682 43.0563 13.6123C43.0563 13.8613 43.1125 14.0884 43.2248 14.2935C43.3371 14.4985 43.5056 14.6621 43.7302 14.7842C43.9597 14.9014 44.2404 14.96 44.5725 14.96C44.9875 14.96 45.3537 14.8721 45.6711 14.6963C45.9885 14.5205 46.2399 14.3057 46.4255 14.0518C46.6159 13.7979 46.7185 13.5513 46.7331 13.312L47.3117 13.9639C47.2775 14.1689 47.1848 14.396 47.0334 14.645C46.882 14.894 46.6794 15.1333 46.4255 15.3628C46.1765 15.5874 45.8786 15.7754 45.5319 15.9268C45.1901 16.0732 44.8044 16.1465 44.3747 16.1465C43.8376 16.1465 43.3664 16.0415 42.9611 15.8315C42.5607 15.6216 42.2482 15.3408 42.0236 14.9893C41.8039 14.6328 41.694 14.2349 41.694 13.7954C41.694 13.3706 41.7771 12.9971 41.9431 12.6748C42.1091 12.3477 42.3483 12.0767 42.6608 11.8618C42.9733 11.6421 43.3493 11.4761 43.7888 11.3638C44.2282 11.2515 44.7189 11.1953 45.2609 11.1953H46.8356ZM51.3598 4.75V16H49.9975V4.75H51.3598ZM56.6236 16.1465C56.0719 16.1465 55.5714 16.0537 55.1222 15.8682C54.6778 15.6777 54.2945 15.4116 53.9723 15.0698C53.6549 14.728 53.4107 14.3228 53.2398 13.854C53.0689 13.3853 52.9835 12.8726 52.9835 12.3159V12.0083C52.9835 11.3638 53.0787 10.79 53.2691 10.2871C53.4596 9.7793 53.7184 9.34961 54.0455 8.99805C54.3727 8.64648 54.7437 8.38037 55.1588 8.19971C55.5738 8.01904 56.0035 7.92871 56.4479 7.92871C57.0143 7.92871 57.5025 8.02637 57.9127 8.22168C58.3277 8.41699 58.6671 8.69043 58.9308 9.04199C59.1944 9.38867 59.3897 9.79883 59.5167 10.2725C59.6437 10.7412 59.7071 11.2539 59.7071 11.8105V12.4185H53.7892V11.3125H58.3521V11.21C58.3326 10.8584 58.2594 10.5166 58.1324 10.1846C58.0104 9.85254 57.815 9.5791 57.5465 9.36426C57.2779 9.14941 56.9117 9.04199 56.4479 9.04199C56.1402 9.04199 55.857 9.10791 55.5982 9.23975C55.3395 9.3667 55.1173 9.55713 54.9317 9.81104C54.7462 10.0649 54.6021 10.375 54.4996 10.7412C54.3971 11.1074 54.3458 11.5298 54.3458 12.0083V12.3159C54.3458 12.6919 54.3971 13.0459 54.4996 13.3779C54.607 13.7051 54.7608 13.9932 54.961 14.2422C55.1661 14.4912 55.4127 14.6865 55.7008 14.8281C55.9937 14.9697 56.3258 15.0405 56.6969 15.0405C57.1754 15.0405 57.5807 14.9429 57.9127 14.7476C58.2447 14.5522 58.5353 14.291 58.7843 13.9639L59.6046 14.6157C59.4337 14.8745 59.2164 15.1211 58.9527 15.3555C58.6891 15.5898 58.3644 15.7803 57.9786 15.9268C57.5978 16.0732 57.1461 16.1465 56.6236 16.1465Z" fill="#545454"/>
</svg>
